<svg t="1723016558861" class="icon" viewBox="0 0 1024 1024" version="1.1" xmlns="http://www.w3.org/2000/svg" p-id="43781" width="200" height="200"><path d="M32 32m480 0l0 0q480 0 480 480l0 0q0 480-480 480l0 0q-480 0-480-480l0 0q0-480 480-480Z" fill="#FFD663" p-id="43782"></path><path d="M34.4 464Q32 487.936 32 512q0 11.776 0.576 23.552t1.728 23.488q1.152 11.744 2.88 23.392t4.032 23.2q2.304 11.584 5.184 23.008 2.848 11.424 6.272 22.72 3.424 11.264 7.36 22.336 4 11.104 8.512 21.984 4.48 10.88 9.536 21.536 5.056 10.656 10.592 21.056 5.568 10.4 11.616 20.48 6.08 10.112 12.608 19.936 6.56 9.792 13.568 19.232 7.04 9.472 14.496 18.56 7.456 9.12 15.36 17.856 7.936 8.736 16.256 17.088 8.32 8.32 17.088 16.224 8.704 7.936 17.824 15.392 9.12 7.488 18.56 14.496 9.472 7.04 19.264 13.568 9.824 6.56 19.904 12.608 10.112 6.08 20.512 11.616t21.056 10.56q10.656 5.056 21.536 9.6 10.88 4.48 21.984 8.448 11.072 3.968 22.368 7.392 11.264 3.424 22.72 6.304 11.424 2.848 22.976 5.12 11.52 2.336 23.2 4.064 11.648 1.728 23.36 2.88 11.744 1.152 23.52 1.728 11.776 0.576 23.552 0.576t23.552-0.576q11.776-0.576 23.488-1.728 11.744-1.152 23.392-2.88t23.2-4.032q11.584-2.304 23.008-5.184 11.424-2.848 22.72-6.272 11.264-3.424 22.336-7.36 11.104-4 21.984-8.512 10.88-4.48 21.536-9.536 10.656-5.056 21.056-10.592 10.4-5.568 20.48-11.616 10.112-6.08 19.936-12.608 9.792-6.56 19.264-13.568 9.44-7.04 18.56-14.496t17.824-15.36q8.736-7.936 17.088-16.256 8.32-8.32 16.224-17.088 7.936-8.736 15.392-17.824 7.488-9.12 14.496-18.56 7.04-9.472 13.568-19.264 6.56-9.824 12.608-19.904 6.08-10.112 11.616-20.512t10.56-21.056q5.056-10.656 9.6-21.536 4.48-10.88 8.448-21.984 3.968-11.072 7.392-22.368 3.424-11.264 6.304-22.72 2.848-11.392 5.12-22.976 2.336-11.52 4.064-23.2 1.728-11.648 2.88-23.36 1.152-11.744 1.728-23.52Q992 523.776 992 512q0-24.064-2.4-48-1.12 10.976-2.72 21.888t-3.712 21.76q-2.112 10.816-4.704 21.536-2.592 10.72-5.696 21.312-3.072 10.56-6.656 21.024-3.584 10.432-7.616 20.704-4.064 10.24-8.576 20.32-4.512 10.048-9.504 19.904-4.96 9.856-10.4 19.456t-11.264 18.944q-5.856 9.376-12.16 18.432-6.272 9.056-12.96 17.856-6.688 8.768-13.76 17.216-7.104 8.448-14.56 16.576t-15.296 15.872q-7.84 7.776-16 15.168-8.192 7.424-16.704 14.4-8.512 7.04-17.344 13.664t-17.952 12.8q-9.12 6.24-18.528 12-9.376 5.76-19.04 11.136-9.664 5.344-19.52 10.24-9.92 4.896-20 9.312-10.112 4.448-20.384 8.416-10.304 3.936-20.8 7.424-10.432 3.52-21.056 6.496-10.624 3.008-21.376 5.536-10.72 2.496-21.568 4.512-10.848 2.016-21.76 3.52-10.944 1.536-21.92 2.56-10.976 0.992-22.016 1.504Q523.04 896 512 896t-22.08-0.512q-11.008-0.512-21.984-1.504-10.976-1.024-21.888-2.56-10.944-1.504-21.76-3.52-10.88-2.016-21.6-4.512-10.752-2.528-21.376-5.536-10.624-2.976-21.088-6.496-10.464-3.488-20.736-7.424-10.304-3.968-20.416-8.416-10.08-4.416-19.968-9.312-9.92-4.896-19.552-10.24-9.664-5.344-19.04-11.136-9.408-5.76-18.528-11.968T224.064 800q-8.864-6.624-17.376-13.632-8.512-7.04-16.672-14.4-8.192-7.424-16-15.2-7.872-7.744-15.328-15.872-7.456-8.128-14.56-16.576-7.072-8.448-13.76-17.216-6.72-8.8-12.992-17.856-6.272-9.056-12.128-18.432-5.856-9.344-11.264-18.944-5.44-9.6-10.4-19.456-4.992-9.856-9.504-19.904-4.512-10.08-8.576-20.32-4.032-10.24-7.616-20.704-3.584-10.432-6.656-21.024-3.104-10.592-5.696-21.312-2.592-10.72-4.704-21.536-2.112-10.848-3.712-21.76t-2.72-21.888z" fill="#FFD04C" p-id="43783"></path><path d="M96 400a80 80 0 1 0 160 0 80 80 0 1 0-160 0Z" fill="#FF759B" fill-opacity=".2" p-id="43784"></path><path d="M768 400a80 80 0 1 0 160 0 80 80 0 1 0-160 0Z" fill="#FF759B" fill-opacity=".2" p-id="43785"></path><path d="M352 312.896c-22.72 0-41.152 19.104-41.152 42.656 0 15.712-12.256 28.448-27.424 28.448-15.136 0-27.424-12.736-27.424-28.448C256 300.576 298.976 256 352 256s96 44.576 96 99.552c0 15.712-12.288 28.448-27.424 28.448-15.168 0-27.424-12.736-27.424-28.448 0-23.552-18.432-42.656-41.152-42.656z" fill="#52565F" p-id="43786"></path><path d="M352 256c-44 0-81.088 30.72-92.448 72.576-2.304 8.576-3.552 17.632-3.552 26.976 0 15.712 12.288 28.448 27.424 28.448 15.168 0 27.424-12.736 27.424-28.448 0-6.56 1.44-12.768 4-18.336 6.592-14.4 20.768-24.32 37.152-24.32s30.56 9.92 37.152 24.32c2.56 5.568 4 11.776 4 18.336 0 15.712 12.256 28.448 27.424 28.448 15.136 0 27.424-12.736 27.424-28.448 0-9.344-1.248-18.4-3.552-26.976C433.088 286.72 396 256 352 256z" fill="#52565F" p-id="43787"></path><path d="M672 312.896c-22.72 0-41.152 19.104-41.152 42.656 0 15.712-12.256 28.448-27.424 28.448-15.136 0-27.424-12.736-27.424-28.448C576 300.576 618.976 256 672 256s96 44.576 96 99.552c0 15.712-12.288 28.448-27.424 28.448-15.168 0-27.424-12.736-27.424-28.448 0-23.552-18.432-42.656-41.152-42.656z" fill="#52565F" p-id="43788"></path><path d="M672 256c-44 0-81.088 30.72-92.448 72.576-2.304 8.576-3.552 17.632-3.552 26.976 0 15.712 12.288 28.448 27.424 28.448 15.168 0 27.424-12.736 27.424-28.448 0-6.56 1.44-12.768 4-18.336 6.592-14.4 20.768-24.32 37.152-24.32s30.56 9.92 37.152 24.32c2.56 5.568 4 11.776 4 18.336 0 15.712 12.256 28.448 27.424 28.448 15.136 0 27.424-12.736 27.424-28.448 0-9.344-1.248-18.4-3.552-26.976C753.088 286.72 716 256 672 256z" fill="#52565F" p-id="43789"></path><path d="M209.696 515.392a32 32 0 0 1 42.912 14.304C277.184 578.784 367.2 640 512 640s234.816-61.216 259.392-110.304a32 32 0 1 1 57.216 28.608C789.184 637.216 670.4 704 512 704c-158.4 0-277.184-66.784-316.608-145.696a32 32 0 0 1 14.304-42.912z" fill="#52565F" p-id="43790"></path></svg>