<svg t="1723019141154" class="icon" viewBox="0 0 1024 1024" version="1.1" xmlns="http://www.w3.org/2000/svg" p-id="62256" width="200" height="200"><path d="M170.666667 136.533333h682.666666c58.026667 0 102.4 44.373333 102.4 102.4v477.866667c0 58.026667-44.373333 102.4-102.4 102.4H170.666667c-58.026667 0-102.4-44.373333-102.4-102.4V238.933333c0-58.026667 44.373333-102.4 102.4-102.4z" fill="#67CABF" p-id="62257"></path><path d="M170.666667 324.266667a85.333333 85.333333 0 1 0 170.666666 0 85.333333 85.333333 0 1 0-170.666666 0Z" fill="#2E9E91" p-id="62258"></path><path d="M187.733333 764.586667c-10.24 0-17.066667-3.413333-23.893333-10.24-13.653333-13.653333-13.653333-34.133333 0-47.786667l102.4-98.986667c20.48-20.48 47.786667-30.72 71.68-27.306666 27.306667 3.413333 51.2 17.066667 68.266667 37.546666l44.373333 61.44 157.013333-170.666666c27.306667-27.306667 61.44-40.96 92.16-37.546667 34.133333 3.413333 61.44 27.306667 81.92 58.026667l92.16 170.666666c10.24 17.066667 3.413333 37.546667-13.653333 47.786667-17.066667 10.24-37.546667 3.413333-47.786667-13.653333l-92.16-170.666667c-6.826667-13.653333-17.066667-23.893333-30.72-23.893333-10.24 0-23.893333 3.413333-34.133333 17.066666l-160.426667 174.08c-13.653333 13.653333-30.72 20.48-47.786666 20.48-17.066667 0-34.133333-10.24-47.786667-27.306666l-51.2-68.266667c0-3.413333-6.826667-6.826667-13.653333-6.826667s-13.653333 3.413333-20.48 6.826667l-102.4 98.986667c-6.826667 6.826667-13.653333 10.24-23.893334 10.24z" fill="#2E9E91" p-id="62259"></path></svg>