<svg t="1723035137384" class="icon" viewBox="0 0 1024 1024" version="1.1" xmlns="http://www.w3.org/2000/svg" p-id="113485" width="200" height="200"><path d="M946.49 554.53c-8.547 18.328-23.104 32.856-40.543 41.596L246.604 928.894c-46.776 22.872-103.222 4.22-126.961-41.596-10.45-22.126-12.569-47.097-5.335-70.393l72.11-234.742c6.602-21.494 26.456-36.165 48.942-36.165h252.363c18.549-0.075 33.717-15.061 34.14-34.13-0.117-18.774-15.098-33.948-34.14-34.13H235.546c-22.575 0-42.486-14.785-49.014-36.396l-71.157-235.579c-14.888-49.133 13.216-101.537 62.947-116.256 23.019-7.236 47.92-5.04 69.348 6.4l658.277 332.768c45.984 23.487 64.49 80.001 40.543 125.855z" fill="#6495ED" p-id="113486"></path></svg>